<svg data-v-423bf9ae="" xmlns="http://www.w3.org/2000/svg" viewBox="0 0 304.2285810198103 60" class="font"><!----><!----><!----><g data-v-423bf9ae="" id="6f02a0d8-f3a2-4c66-b4c6-9c9a29133b23" fill="black" transform="matrix(5.714285714285714,0,0,5.714285714285714,0.22856827027030135,-16.11428509439741)"><path d="M7.16 2.82L7.32 3.00L7.32 3.00Q7.10 3.33 6.80 3.62L6.80 3.62L6.80 3.62Q6.50 3.90 6.14 4.12L6.14 4.12L6.14 4.12Q5.78 4.34 5.39 4.47L5.39 4.47L5.39 4.47Q4.99 4.59 4.59 4.59L4.59 4.59L4.44 4.61L4.44 4.61Q4.18 4.94 4.04 5.24L4.04 5.24L4.04 5.24Q3.90 5.55 3.90 5.97L3.90 5.97L3.90 10.34L3.90 10.34Q3.90 11.25 3.52 11.95L3.52 11.95L3.52 11.95Q3.13 12.66 2.38 13.17L2.38 13.17L2.15 12.91L2.15 12.91Q2.27 12.78 2.34 12.62L2.34 12.62L2.34 12.62Q2.41 12.45 2.44 12.27L2.44 12.27L2.44 12.27Q2.47 12.09 2.48 11.91L2.48 11.91L2.48 11.91Q2.50 11.73 2.50 11.57L2.50 11.57L2.50 6.76L2.50 6.76Q2.50 6.44 2.63 6.14L2.63 6.14L2.63 6.14Q2.76 5.83 2.97 5.56L2.97 5.56L2.97 5.56Q3.17 5.28 3.42 5.04L3.42 5.04L3.42 5.04Q3.67 4.81 3.90 4.61L3.90 4.61L1.64 4.59L1.64 4.59Q1.38 4.59 1.18 4.65L1.18 4.65L1.18 4.65Q0.98 4.70 0.81 4.79L0.81 4.79L0.81 4.79Q0.64 4.89 0.48 5.03L0.48 5.03L0.48 5.03Q0.32 5.17 0.16 5.37L0.16 5.37L-0.04 5.15L-0.04 5.15Q0.18 4.85 0.47 4.50L0.47 4.50L0.47 4.50Q0.75 4.16 1.08 3.88L1.08 3.88L1.08 3.88Q1.42 3.60 1.79 3.42L1.79 3.42L1.79 3.42Q2.17 3.23 2.59 3.23L2.59 3.23L5.54 3.23L5.54 3.23Q5.72 3.23 5.94 3.21L5.94 3.21L5.94 3.21Q6.17 3.19 6.39 3.14L6.39 3.14L6.39 3.14Q6.62 3.10 6.82 3.02L6.82 3.02L6.82 3.02Q7.02 2.94 7.16 2.82L7.16 2.82ZM11.71 12.03L11.90 12.24L11.90 12.24Q11.74 12.57 11.53 12.75L11.53 12.75L11.53 12.75Q11.32 12.93 11.13 13.01L11.13 13.01L11.13 13.01Q10.90 13.10 10.67 13.12L10.67 13.12L10.67 13.12Q10.36 13.12 10.17 13.02L10.17 13.02L10.17 13.02Q9.97 12.93 9.86 12.77L9.86 12.77L9.86 12.77Q9.74 12.61 9.70 12.41L9.70 12.41L9.70 12.41Q9.65 12.22 9.65 12.01L9.65 12.01L9.65 9.83L9.65 9.83Q9.60 10.08 9.51 10.42L9.51 10.42L9.51 10.42Q9.43 10.76 9.30 11.13L9.30 11.13L9.30 11.13Q9.18 11.50 9.02 11.87L9.02 11.87L9.02 11.87Q8.85 12.24 8.64 12.52L8.64 12.52L8.64 12.52Q8.42 12.81 8.15 12.99L8.15 12.99L8.15 12.99Q7.88 13.17 7.55 13.17L7.55 13.17L7.55 13.17Q7.27 13.17 7.11 13.07L7.11 13.07L7.11 13.07Q6.95 12.96 6.87 12.77L6.87 12.77L6.87 12.77Q6.79 12.57 6.77 12.30L6.77 12.30L6.77 12.30Q6.75 12.03 6.75 11.70L6.75 11.70L6.75 8.74L6.75 8.74Q6.75 8.57 6.68 8.48L6.68 8.48L6.68 8.48Q6.60 8.38 6.48 8.38L6.48 8.38L6.48 8.38Q6.36 8.37 6.22 8.46L6.22 8.46L6.22 8.46Q6.08 8.55 5.94 8.75L5.94 8.75L5.76 8.54L5.76 8.54Q5.91 8.22 6.12 8.04L6.12 8.04L6.12 8.04Q6.32 7.85 6.52 7.77L6.52 7.77L6.52 7.77Q6.75 7.68 6.99 7.66L6.99 7.66L6.99 7.66Q7.29 7.66 7.49 7.76L7.49 7.76L7.49 7.76Q7.68 7.85 7.80 8.01L7.80 8.01L7.80 8.01Q7.91 8.16 7.95 8.36L7.95 8.36L7.95 8.36Q8.00 8.56 8.00 8.76L8.00 8.76L8.00 11.59L8.00 11.59Q8.00 11.86 8.09 11.94L8.09 11.94L8.09 11.94Q8.19 12.02 8.34 11.92L8.34 11.92L8.34 11.92Q8.50 11.81 8.69 11.53L8.69 11.53L8.69 11.53Q8.87 11.25 9.06 10.78L9.06 10.78L9.06 10.78Q9.19 10.34 9.30 9.86L9.30 9.86L9.30 9.86Q9.40 9.46 9.50 8.98L9.50 8.98L9.50 8.98Q9.60 8.49 9.65 8.04L9.65 8.04L10.91 7.60L10.91 12.04L10.91 12.04Q10.91 12.21 10.99 12.30L10.99 12.30L10.99 12.30Q11.06 12.40 11.18 12.40L11.18 12.40L11.18 12.40Q11.29 12.41 11.43 12.32L11.43 12.32L11.43 12.32Q11.57 12.23 11.71 12.03L11.71 12.03ZM18.19 12.03L18.39 12.24L18.39 12.24Q18.31 12.41 18.18 12.57L18.18 12.57L18.18 12.57Q18.05 12.73 17.89 12.85L17.89 12.85L17.89 12.85Q17.73 12.97 17.54 13.05L17.54 13.05L17.54 13.05Q17.36 13.12 17.16 13.12L17.16 13.12L17.16 13.12Q16.62 13.12 16.38 12.82L16.38 12.82L16.38 12.82Q16.13 12.52 16.13 12.01L16.13 12.01L16.13 9.23L16.13 9.23Q16.13 9.18 16.13 9.12L16.13 9.12L16.13 9.12Q16.13 9.05 16.11 8.99L16.11 8.99L16.11 8.99Q16.08 8.93 16.05 8.89L16.05 8.89L16.05 8.89Q16.02 8.85 15.96 8.85L15.96 8.85L15.96 8.85Q15.76 8.85 15.57 9.08L15.57 9.08L15.57 9.08Q15.37 9.32 15.19 9.69L15.19 9.69L15.19 9.69Q15.01 10.06 14.86 10.51L14.86 10.51L14.86 10.51Q14.70 10.97 14.59 11.42L14.59 11.42L14.59 11.42Q14.47 11.87 14.41 12.26L14.41 12.26L14.41 12.26Q14.34 12.65 14.34 12.88L14.34 12.88L13.10 13.32L13.10 8.72L13.10 8.72Q13.10 8.59 13.03 8.47L13.03 8.47L13.03 8.47Q12.96 8.36 12.82 8.36L12.82 8.36L12.82 8.36Q12.65 8.36 12.51 8.49L12.51 8.49L12.51 8.49Q12.37 8.61 12.28 8.74L12.28 8.74L12.10 8.53L12.10 8.53Q12.18 8.36 12.31 8.20L12.31 8.20L12.31 8.20Q12.43 8.04 12.60 7.92L12.60 7.92L12.60 7.92Q12.76 7.79 12.94 7.72L12.94 7.72L12.94 7.72Q13.13 7.65 13.34 7.65L13.34 7.65L13.34 7.65Q13.87 7.65 14.11 7.95L14.11 7.95L14.11 7.95Q14.34 8.24 14.34 8.75L14.34 8.75L14.34 10.98L14.34 10.98Q14.40 10.70 14.51 10.34L14.51 10.34L14.51 10.34Q14.62 9.98 14.77 9.61L14.77 9.61L14.77 9.61Q14.92 9.24 15.10 8.89L15.10 8.89L15.10 8.89Q15.29 8.54 15.52 8.26L15.52 8.26L15.52 8.26Q15.74 7.98 16.01 7.82L16.01 7.82L16.01 7.82Q16.28 7.65 16.58 7.65L16.58 7.65L16.58 7.65Q16.91 7.65 17.07 7.79L17.07 7.79L17.07 7.79Q17.23 7.93 17.31 8.15L17.31 8.15L17.31 8.15Q17.38 8.36 17.38 8.62L17.38 8.62L17.38 8.62Q17.39 8.88 17.39 9.12L17.39 9.12L17.39 12.04L17.39 12.04Q17.39 12.18 17.46 12.29L17.46 12.29L17.46 12.29Q17.53 12.41 17.67 12.41L17.67 12.41L17.67 12.41Q17.83 12.41 17.97 12.28L17.97 12.28L17.97 12.28Q18.11 12.15 18.19 12.03L18.19 12.03ZM23.58 11.48L23.79 11.70L23.79 11.70Q23.55 12.01 23.27 12.28L23.27 12.28L23.27 12.28Q22.98 12.54 22.65 12.74L22.65 12.74L22.65 12.74Q22.32 12.94 21.95 13.06L21.95 13.06L21.95 13.06Q21.58 13.17 21.18 13.17L21.18 13.17L21.18 13.17Q20.68 13.17 20.25 12.99L20.25 12.99L20.25 12.99Q19.83 12.81 19.52 12.49L19.52 12.49L19.52 12.49Q19.22 12.17 19.04 11.74L19.04 11.74L19.04 11.74Q18.87 11.31 18.87 10.81L18.87 10.81L18.87 10.81Q18.87 10.40 18.99 10.00L18.99 10.00L18.99 10.00Q19.11 9.60 19.32 9.26L19.32 9.26L19.32 9.26Q19.53 8.91 19.82 8.61L19.82 8.61L19.82 8.61Q20.11 8.31 20.46 8.10L20.46 8.10L20.46 8.10Q20.81 7.89 21.20 7.77L21.20 7.77L21.20 7.77Q21.59 7.65 22.00 7.65L22.00 7.65L22.00 7.65Q22.29 7.65 22.54 7.72L22.54 7.72L22.54 7.72Q22.80 7.79 23.00 7.93L23.00 7.93L23.00 7.93Q23.19 8.08 23.31 8.31L23.31 8.31L23.31 8.31Q23.43 8.54 23.43 8.85L23.43 8.85L23.43 8.85Q23.43 9.11 23.27 9.40L23.27 9.40L23.27 9.40Q23.12 9.69 22.87 9.97L22.87 9.97L22.87 9.97Q22.62 10.26 22.31 10.54L22.31 10.54L22.31 10.54Q21.99 10.81 21.67 11.05L21.67 11.05L21.67 11.05Q21.34 11.29 21.04 11.46L21.04 11.46L21.04 11.46Q20.74 11.64 20.51 11.74L20.51 11.74L20.51 11.74Q20.77 12.05 21.10 12.25L21.10 12.25L21.10 12.25Q21.44 12.45 21.81 12.45L21.81 12.45L21.81 12.45Q22.05 12.45 22.30 12.36L22.30 12.36L22.30 12.36Q22.54 12.26 22.77 12.12L22.77 12.12L22.77 12.12Q23.00 11.98 23.21 11.81L23.21 11.81L23.21 11.81Q23.42 11.63 23.58 11.48L23.58 11.48ZM22.14 9.11L22.14 9.11L22.14 9.11Q22.14 8.95 22.09 8.80L22.09 8.80L22.09 8.80Q22.04 8.66 21.94 8.56L21.94 8.56L21.94 8.56Q21.85 8.45 21.71 8.38L21.71 8.38L21.71 8.38Q21.58 8.32 21.41 8.32L21.41 8.32L21.41 8.32Q21.10 8.32 20.84 8.53L20.84 8.53L20.84 8.53Q20.58 8.75 20.40 9.06L20.40 9.06L20.40 9.06Q20.21 9.38 20.10 9.73L20.10 9.73L20.10 9.73Q20.00 10.08 20.00 10.35L20.00 10.35L20.00 10.35Q20.00 10.61 20.08 10.88L20.08 10.88L20.08 10.88Q20.16 11.16 20.30 11.41L20.30 11.41L20.30 11.41Q20.58 11.26 20.90 10.99L20.90 10.99L20.90 10.99Q21.22 10.73 21.50 10.41L21.50 10.41L21.50 10.41Q21.77 10.09 21.96 9.75L21.96 9.75L21.96 9.75Q22.14 9.41 22.14 9.11ZM30.44 2.82L30.60 3.00L30.60 3.00Q30.39 3.33 30.08 3.62L30.08 3.62L30.08 3.62Q29.78 3.90 29.43 4.12L29.43 4.12L29.43 4.12Q29.07 4.34 28.67 4.47L28.67 4.47L28.67 4.47Q28.27 4.59 27.88 4.59L27.88 4.59L27.72 4.61L27.72 4.61Q27.46 4.94 27.32 5.24L27.32 5.24L27.32 5.24Q27.19 5.55 27.19 5.97L27.19 5.97L27.19 10.34L27.19 10.34Q27.19 11.25 26.80 11.95L26.80 11.95L26.80 11.95Q26.41 12.66 25.66 13.17L25.66 13.17L25.44 12.91L25.44 12.91Q25.55 12.78 25.62 12.62L25.62 12.62L25.62 12.62Q25.69 12.45 25.72 12.27L25.72 12.27L25.72 12.27Q25.76 12.09 25.77 11.91L25.77 11.91L25.77 11.91Q25.78 11.73 25.78 11.57L25.78 11.57L25.78 6.76L25.78 6.76Q25.78 6.44 25.91 6.14L25.91 6.14L25.91 6.14Q26.04 5.83 26.25 5.56L26.25 5.56L26.25 5.56Q26.46 5.28 26.70 5.04L26.70 5.04L26.70 5.04Q26.95 4.81 27.19 4.61L27.19 4.61L24.92 4.59L24.92 4.59Q24.66 4.59 24.46 4.65L24.46 4.65L24.46 4.65Q24.26 4.70 24.09 4.79L24.09 4.79L24.09 4.79Q23.92 4.89 23.76 5.03L23.76 5.03L23.76 5.03Q23.60 5.17 23.44 5.37L23.44 5.37L23.24 5.15L23.24 5.15Q23.47 4.85 23.75 4.50L23.75 4.50L23.75 4.50Q24.04 4.16 24.37 3.88L24.37 3.88L24.37 3.88Q24.70 3.60 25.08 3.42L25.08 3.42L25.08 3.42Q25.46 3.23 25.87 3.23L25.87 3.23L28.83 3.23L28.83 3.23Q29.00 3.23 29.23 3.21L29.23 3.21L29.23 3.21Q29.45 3.19 29.67 3.14L29.67 3.14L29.67 3.14Q29.90 3.10 30.10 3.02L30.10 3.02L30.10 3.02Q30.30 2.94 30.44 2.82L30.44 2.82ZM34.99 12.03L35.18 12.24L35.18 12.24Q35.03 12.57 34.82 12.75L34.82 12.75L34.82 12.75Q34.60 12.93 34.41 13.01L34.41 13.01L34.41 13.01Q34.19 13.10 33.95 13.12L33.95 13.12L33.95 13.12Q33.65 13.12 33.45 13.02L33.45 13.02L33.45 13.02Q33.26 12.93 33.14 12.77L33.14 12.77L33.14 12.77Q33.02 12.61 32.98 12.41L32.98 12.41L32.98 12.41Q32.94 12.22 32.94 12.01L32.94 12.01L32.94 9.83L32.94 9.83Q32.88 10.08 32.80 10.42L32.80 10.42L32.80 10.42Q32.71 10.76 32.59 11.13L32.59 11.13L32.59 11.13Q32.46 11.50 32.30 11.87L32.30 11.87L32.30 11.87Q32.14 12.24 31.92 12.52L31.92 12.52L31.92 12.52Q31.71 12.81 31.44 12.99L31.44 12.99L31.44 12.99Q31.17 13.17 30.83 13.17L30.83 13.17L30.83 13.17Q30.55 13.17 30.39 13.07L30.39 13.07L30.39 13.07Q30.23 12.96 30.15 12.77L30.15 12.77L30.15 12.77Q30.07 12.57 30.05 12.30L30.05 12.30L30.05 12.30Q30.04 12.03 30.04 11.70L30.04 11.70L30.04 8.74L30.04 8.74Q30.04 8.57 29.96 8.48L29.96 8.48L29.96 8.48Q29.89 8.38 29.77 8.38L29.77 8.38L29.77 8.38Q29.65 8.37 29.50 8.46L29.50 8.46L29.50 8.46Q29.36 8.55 29.22 8.75L29.22 8.75L29.04 8.54L29.04 8.54Q29.20 8.22 29.40 8.04L29.40 8.04L29.40 8.04Q29.61 7.85 29.80 7.77L29.80 7.77L29.80 7.77Q30.03 7.68 30.27 7.66L30.27 7.66L30.27 7.66Q30.58 7.66 30.77 7.76L30.77 7.76L30.77 7.76Q30.97 7.85 31.08 8.01L31.08 8.01L31.08 8.01Q31.19 8.16 31.24 8.36L31.24 8.36L31.24 8.36Q31.28 8.56 31.28 8.76L31.28 8.76L31.28 11.59L31.28 11.59Q31.28 11.86 31.38 11.94L31.38 11.94L31.38 11.94Q31.47 12.02 31.63 11.92L31.63 11.92L31.63 11.92Q31.78 11.81 31.97 11.53L31.97 11.53L31.97 11.53Q32.16 11.25 32.35 10.78L32.35 10.78L32.35 10.78Q32.47 10.34 32.59 9.86L32.59 9.86L32.59 9.86Q32.68 9.46 32.78 8.98L32.78 8.98L32.78 8.98Q32.88 8.49 32.94 8.04L32.94 8.04L34.19 7.60L34.19 12.04L34.19 12.04Q34.19 12.21 34.27 12.30L34.27 12.30L34.27 12.30Q34.34 12.40 34.46 12.40L34.46 12.40L34.46 12.40Q34.58 12.41 34.72 12.32L34.72 12.32L34.72 12.32Q34.86 12.23 34.99 12.03L34.99 12.03ZM38.32 12.03L38.51 12.24L38.51 12.24Q38.35 12.57 38.14 12.75L38.14 12.75L38.14 12.75Q37.94 12.93 37.74 13.01L37.74 13.01L37.74 13.01Q37.52 13.10 37.28 13.12L37.28 13.12L37.28 13.12Q36.97 13.12 36.77 13.02L36.77 13.02L36.77 13.02Q36.58 12.93 36.47 12.77L36.47 12.77L36.47 12.77Q36.35 12.61 36.31 12.41L36.31 12.41L36.31 12.41Q36.26 12.22 36.26 12.01L36.26 12.01L36.26 8.43L35.54 8.43L35.83 7.75L36.26 7.75L36.26 5.33L37.52 4.89L37.52 7.75L38.81 7.75L38.53 8.43L37.52 8.43L37.52 12.04L37.52 12.04Q37.52 12.21 37.59 12.30L37.59 12.30L37.59 12.30Q37.67 12.40 37.78 12.40L37.78 12.40L37.78 12.40Q37.90 12.41 38.04 12.32L38.04 12.32L38.04 12.32Q38.19 12.23 38.32 12.03L38.32 12.03ZM41.72 13.19L41.72 13.19L41.72 13.19Q41.21 13.19 40.77 13.01L40.77 13.01L40.77 13.01Q40.33 12.83 40.01 12.51L40.01 12.51L40.01 12.51Q39.68 12.19 39.49 11.75L39.49 11.75L39.49 11.75Q39.31 11.32 39.31 10.81L39.31 10.81L39.31 10.81Q39.31 10.23 39.50 9.72L39.50 9.72L39.50 9.72Q39.69 9.21 40.03 8.80L40.03 8.80L40.03 8.80Q40.37 8.39 40.83 8.09L40.83 8.09L40.83 8.09Q41.29 7.79 41.83 7.62L41.83 7.62L42.03 7.85L42.03 7.85Q41.72 8.08 41.45 8.37L41.45 8.37L41.45 8.37Q41.19 8.66 40.99 9.00L40.99 9.00L40.99 9.00Q40.79 9.34 40.67 9.71L40.67 9.71L40.67 9.71Q40.56 10.08 40.56 10.47L40.56 10.47L40.56 10.47Q40.56 10.80 40.65 11.16L40.65 11.16L40.65 11.16Q40.75 11.53 40.94 11.83L40.94 11.83L40.94 11.83Q41.13 12.13 41.42 12.32L41.42 12.32L41.42 12.32Q41.71 12.52 42.10 12.52L42.10 12.52L42.10 12.52Q42.44 12.52 42.69 12.39L42.69 12.39L42.69 12.39Q42.94 12.27 43.10 12.06L43.10 12.06L43.10 12.06Q43.26 11.85 43.35 11.56L43.35 11.56L43.35 11.56Q43.43 11.28 43.43 10.96L43.43 10.96L43.43 10.96Q43.43 10.60 43.29 10.21L43.29 10.21L43.29 10.21Q43.14 9.82 42.89 9.50L42.89 9.50L42.89 9.50Q42.64 9.17 42.31 8.95L42.31 8.95L42.31 8.95Q41.97 8.73 41.59 8.70L41.59 8.70L41.59 8.70Q41.83 8.42 42.12 8.19L42.12 8.19L42.12 8.19Q42.40 7.96 42.70 7.75L42.70 7.75L42.70 7.75Q43.09 7.88 43.40 8.13L43.40 8.13L43.40 8.13Q43.70 8.38 43.91 8.71L43.91 8.71L43.91 8.71Q44.12 9.04 44.23 9.42L44.23 9.42L44.23 9.42Q44.34 9.81 44.34 10.21L44.34 10.21L44.34 10.21Q44.34 10.75 44.15 11.28L44.15 11.28L44.15 11.28Q43.96 11.81 43.62 12.24L43.62 12.24L43.62 12.24Q43.27 12.67 42.79 12.93L42.79 12.93L42.79 12.93Q42.31 13.19 41.72 13.19ZM49.04 12.11L49.21 12.29L49.21 12.29Q49.08 12.48 48.90 12.64L48.90 12.64L48.90 12.64Q48.73 12.79 48.51 12.90L48.51 12.90L48.51 12.90Q48.30 13.01 48.07 13.07L48.07 13.07L48.07 13.07Q47.84 13.13 47.61 13.13L47.61 13.13L47.61 13.13Q47.31 13.13 47.10 13.02L47.10 13.02L47.10 13.02Q46.88 12.91 46.74 12.72L46.74 12.72L46.74 12.72Q46.61 12.54 46.54 12.29L46.54 12.29L46.54 12.29Q46.48 12.04 46.48 11.78L46.48 11.78L46.48 11.78Q46.48 11.43 46.58 11.03L46.58 11.03L46.58 11.03Q46.69 10.63 46.87 10.24L46.87 10.24L46.87 10.24Q47.05 9.85 47.28 9.52L47.28 9.52L47.28 9.52Q47.52 9.18 47.78 8.96L47.78 8.96L47.78 8.96Q47.54 9.12 47.25 9.21L47.25 9.21L47.25 9.21Q46.97 9.30 46.68 9.30L46.68 9.30L46.68 9.30Q46.46 9.30 46.31 9.26L46.31 9.26L46.31 9.26Q46.15 9.23 45.96 9.13L45.96 9.13L45.25 10.62L44.95 10.50L45.69 8.99L45.69 8.99Q45.58 8.91 45.44 8.78L45.44 8.78L45.44 8.78Q45.31 8.65 45.25 8.53L45.25 8.53L46.20 7.46L46.20 7.46Q46.26 7.65 46.37 7.84L46.37 7.84L46.37 7.84Q46.48 8.03 46.62 8.17L46.62 8.17L46.62 8.17Q46.77 8.32 46.95 8.42L46.95 8.42L46.95 8.42Q47.13 8.51 47.35 8.51L47.35 8.51L47.35 8.51Q47.71 8.51 48.05 8.38L48.05 8.38L48.05 8.38Q48.39 8.24 48.69 8.05L48.69 8.05L48.87 8.24L48.87 8.24Q48.61 8.48 48.35 8.77L48.35 8.77L48.35 8.77Q48.08 9.06 47.87 9.39L47.87 9.39L47.87 9.39Q47.66 9.71 47.53 10.08L47.53 10.08L47.53 10.08Q47.40 10.44 47.40 10.81L47.40 10.81L47.40 10.81Q47.40 11.02 47.46 11.28L47.46 11.28L47.46 11.28Q47.52 11.55 47.64 11.78L47.64 11.78L47.64 11.78Q47.76 12.02 47.95 12.18L47.95 12.18L47.95 12.18Q48.13 12.34 48.39 12.34L48.39 12.34L48.39 12.34Q48.57 12.34 48.74 12.27L48.74 12.27L48.74 12.27Q48.90 12.21 49.04 12.11L49.04 12.11ZM53.20 11.15L53.20 11.15L53.20 11.15Q53.20 11.57 53.04 11.94L53.04 11.94L53.04 11.94Q52.88 12.31 52.61 12.58L52.61 12.58L52.61 12.58Q52.34 12.86 51.97 13.02L51.97 13.02L51.97 13.02Q51.60 13.17 51.17 13.17L51.17 13.17L51.17 13.17Q50.98 13.17 50.77 13.14L50.77 13.14L50.77 13.14Q50.55 13.10 50.34 13.04L50.34 13.04L50.34 13.04Q50.13 12.97 49.94 12.87L49.94 12.87L49.94 12.87Q49.75 12.76 49.63 12.62L49.63 12.62L50.44 11.57L50.44 11.57Q50.52 11.70 50.64 11.85L50.64 11.85L50.64 11.85Q50.76 12.00 50.90 12.13L50.90 12.13L50.90 12.13Q51.05 12.26 51.22 12.35L51.22 12.35L51.22 12.35Q51.39 12.43 51.56 12.43L51.56 12.43L51.56 12.43Q51.75 12.43 51.93 12.37L51.93 12.37L51.93 12.37Q52.10 12.30 52.23 12.17L52.23 12.17L52.23 12.17Q52.36 12.04 52.44 11.87L52.44 11.87L52.44 11.87Q52.51 11.70 52.51 11.50L52.51 11.50L52.51 11.50Q52.51 11.22 52.33 11.00L52.33 11.00L52.33 11.00Q52.14 10.77 51.88 10.55L51.88 10.55L51.88 10.55Q51.63 10.34 51.35 10.11L51.35 10.11L51.35 10.11Q51.07 9.88 50.90 9.60L50.90 9.60L50.19 10.64L49.92 10.45L50.74 9.31L50.74 9.31Q50.65 9.11 50.59 8.89L50.59 8.89L50.59 8.89Q50.54 8.67 50.54 8.46L50.54 8.46L50.54 8.46Q50.54 8.27 50.60 8.07L50.60 8.07L50.60 8.07Q50.66 7.86 50.78 7.69L50.78 7.69L50.78 7.69Q50.89 7.52 51.06 7.41L51.06 7.41L51.06 7.41Q51.23 7.29 51.45 7.29L51.45 7.29L51.45 7.29Q51.66 7.29 51.81 7.42L51.81 7.42L51.81 7.42Q51.95 7.55 51.95 7.79L51.95 7.79L51.95 7.79Q51.95 7.91 51.91 8.03L51.91 8.03L51.91 8.03Q51.87 8.16 51.81 8.28L51.81 8.28L51.81 8.28Q51.75 8.40 51.67 8.51L51.67 8.51L51.67 8.51Q51.60 8.63 51.53 8.72L51.53 8.72L51.53 8.72Q51.69 8.96 51.88 9.13L51.88 9.13L51.88 9.13Q52.08 9.30 52.26 9.45L52.26 9.45L52.26 9.45Q52.45 9.60 52.62 9.75L52.62 9.75L52.62 9.75Q52.79 9.90 52.91 10.09L52.91 10.09L52.91 10.09Q53.04 10.28 53.12 10.53L53.12 10.53L53.12 10.53Q53.20 10.79 53.20 11.15ZM51.65 7.91L51.65 7.91L51.65 7.91Q51.65 7.81 51.58 7.77L51.58 7.77L51.58 7.77Q51.52 7.72 51.43 7.72L51.43 7.72L51.43 7.72Q51.32 7.72 51.27 7.80L51.27 7.80L51.27 7.80Q51.22 7.88 51.22 7.97L51.22 7.97L51.22 7.97Q51.22 8.11 51.27 8.24L51.27 8.24L51.27 8.24Q51.31 8.37 51.38 8.48L51.38 8.48L51.38 8.48Q51.41 8.44 51.45 8.36L51.45 8.36L51.45 8.36Q51.50 8.29 51.54 8.20L51.54 8.20L51.54 8.20Q51.58 8.11 51.61 8.04L51.61 8.04L51.61 8.04Q51.65 7.96 51.65 7.91Z"></path></g><!----><!----></svg>